<svg version="1" xmlns="http://www.w3.org/2000/svg" width="1525.333" height="1525.333" viewBox="0 0 1144.000000 1144.000000"><path d="M536.5 1.6c-99.8 7.6-185.4 35.1-266.2 85.3C212 123 156.7 173.7 115.5 228.5 52.1 312.9 15 407.9 3.3 516c-2.6 23.6-2.6 88.4 0 112C16.6 750.2 62 855.4 141.1 947c14.8 17.1 46.5 48.3 63.4 62.4 90.4 75.2 192.8 118.4 311.5 131.3 23.6 2.6 88.4 2.6 112 0 108.1-11.7 203.1-48.8 287.5-112.2 37.7-28.4 77.4-67.4 107.3-105.5 59.1-75.5 99.1-168 113.7-263 5.1-33.2 6-45.9 6-88 0-31.2-.4-43-1.8-56-12.9-118.7-56.1-221.1-131.3-311.5-14.1-16.9-45.3-48.6-62.4-63.4C855.8 62.4 750.4 16.7 629.5 3.5c-14.2-1.6-79.7-2.9-93-1.9zm58 122.4c81.4 4.5 156.5 29 223.5 72.9 40.8 26.7 79.2 62.3 109.3 101.2 3.7 4.8 6.7 9.1 6.7 9.6 0 1-59.2 53.5-60.9 54.1-.5.2-3.3-3-6.2-7-22.2-30-55-62-85.3-83-49.9-34.7-103-55.1-165.6-63.5-16.8-2.2-66.3-2.5-83.5-.5-71.8 8.6-134.1 34.4-190.2 79-13.9 11-44.5 41.6-55.7 55.7-17.4 21.8-33.1 46.8-44.6 70.8-6.2 13-14 31.6-14 33.4 0 .5 105.5 106.3 234.4 235.2l234.4 234.4 6.4-2.3c46.7-17.3 93.2-48.1 130.8-86.6 37.4-38.4 64.2-81 82.6-131.4 3.8-10.4 10.4-32.3 10.4-34.6 0-1.2-14.2-1.4-97-1.4h-97v-88h288.2l-.6 8.7c-.3 4.9-.8 14.2-1.1 20.8-.8 15.1-3.7 38.4-7 55.7-14.9 76.5-48.9 146.8-100.4 207.3-11.1 13-34.8 36.7-48.1 48.1-53.1 45.3-121.2 80.2-185.9 95.4l-5.3 1.3-269-269.1-269.1-269 1.3-5.3c7-30 19.4-63.5 35.1-94.9C206 301.3 258.8 241.6 324 198.3c66.8-44.4 144.9-70.3 224.1-74.2 24.1-1.2 25.7-1.2 46.4-.1zM345 799.5c121.2 121.2 220.2 220.6 220 220.8-1 .8-34.5-1.4-49.2-3.3C312.5 991.1 153.1 831.8 127 628.6c-1.1-8.4-2.2-21.1-2.5-28.2-.3-7.1-.8-14.8-1-17.2-.3-2.3-.1-4.2.3-4.2s99.9 99.2 221.2 220.5z"/></svg>