<svg version="1" xmlns="http://www.w3.org/2000/svg" width="1525.333" height="1525.333" viewBox="0 0 1144.000000 1144.000000"><path d="M563.7.6c-.1.1-7.6.4-16.7.8-9.1.3-18.3.8-20.5 1-2.2.2-6.9.7-10.5 1-8.7.8-15.7 1.7-27 3.2-14.5 2-49.5 9-59.5 11.9-2.7.8-9.7 2.8-15.5 4.5-19.2 5.4-42.9 13.5-54.5 18.5-1.6.7-7 2.9-12 5-13.9 5.8-35.5 16.4-51 25-14 7.8-40.6 24-45.7 27.9-1.5 1.2-5 3.7-7.8 5.6-33.3 22.7-70.2 56-102.5 92.5-13.8 15.5-38.2 48.2-49 65.5-3.3 5.2-6.2 9.7-6.5 10-.3.3-1.2 1.6-1.9 3-22.5 38.8-37.8 71.1-49.1 103.5-8.6 24.7-10.9 32.4-16.3 54-3.1 12-4.3 17.8-7.2 32.5-.4 2.2-2.9 17.3-4 24-.7 5.1-1.5 10.7-2 16-.4 3-.8 6.6-1 8-.2 1.4-.6 6.8-1 12-.3 5.2-.8 12-1.1 15-.6 6.9-.6 54.8 0 61.5.2 2.7.7 9.7 1.1 15.5.4 5.8.9 11.3 1 12.2.2.9.6 4.3 1 7.5.3 3.2.7 6.9 1 8.3.2 1.4.7 4.7 1 7.5.5 4.3 1.7 12.1 4 25 1.7 9.1 8.1 36.7 11.2 47.5 10.1 36.1 23.4 70.1 40.3 103.5 9.5 18.7 12.6 24.4 17.7 32.3 1.8 2.9 3.3 5.5 3.3 5.7 0 .9 18.4 28.7 25.5 38.5 6.3 8.8 25.9 33.6 32 40.5 36.2 41.2 74.7 74.7 119.5 104 27 17.7 55.6 33.2 82 44.5 8 3.4 15.4 6.6 16.5 7.1 19 8.2 69.3 23.9 87.5 27.3 1.4.2 5.8 1.2 9.7 2 7.9 1.7 27.1 5.1 34.3 6.1 2.5.3 5.6.8 7 1 1.4.2 5.3.7 8.7 1 3.4.3 7 .7 8 .9 1 .2 6.5.7 12.3 1.1 5.8.3 12.8.9 15.5 1.1 6.5.6 55.6.6 61.5 0 2.5-.2 8.6-.7 13.5-1.1 5-.4 10.4-.8 12-1 1.7-.1 5.7-.5 9-.9 7.1-.7 10.6-1.2 26-3.6 6.1-.9 18.1-3.2 32.1-6 23.2-4.8 68.8-18.8 88.9-27.5 1.7-.7 7.1-2.9 12-5 8.1-3.4 46.8-22.1 50.5-24.5.8-.6 5.3-3.2 10-5.8 10.5-5.9 31.5-19.2 39.2-24.7 3.1-2.2 6.6-4.7 7.8-5.5 6.1-4.2 23.7-17.8 33.5-26 60.1-50.2 109-111.4 143.7-180.2 9-17.7 10.8-21.4 16.4-34.3 7.2-16.6 18.4-48.1 23.4-66 1.2-4.4 2.8-10 3.5-12.5 5-16.9 12.8-58.4 15.1-80.5.3-3.3.8-6.7.9-7.5.2-.8.6-6.5 1-12.5.4-6.1.9-12.8 1.1-15 .5-5.4.5-59.5 0-62-.2-1.1-.7-7.1-1.1-13.4-.3-6.2-.8-12.1-1-13-.1-.9-.6-4.3-.9-7.6-1.9-18-6.5-44.7-10.6-62-1.2-5-2.3-9.8-2.5-10.7-2.3-11.1-15.6-54-19.1-61.5-.7-1.7-1.4-3.4-1.4-3.7 0-1.9-13.5-32.8-21.1-48.1-7.6-15.4-12.3-24.1-24.1-44.4-9.6-16.6-35.7-53.3-48.4-68.1-1.2-1.4-5.4-6.3-9.4-11-16.8-19.6-46.3-48.6-64.9-63.6-1.3-1-2.8-2.4-3.5-2.9-7-6.4-40.8-31.1-52-38.2C849.5 71.6 811.8 52 785.5 42c-1.1-.5-3.7-1.5-5.8-2.5-2.1-.9-4.6-1.8-5.7-2-1-.2-2.7-.8-3.7-1.3s-4.7-1.9-8.3-3.1c-3.6-1.2-7.4-2.6-8.5-3.1-6.3-2.5-46.1-13.6-55.5-15.4-1.4-.2-5.8-1.2-9.7-2-27.4-5.9-58.6-9.8-89.3-11.2-12.7-.6-35-1.1-35.3-.8zm39.8 123.8c13 1.1 17.2 1.5 30 3.2 2.2.3 5.1.7 6.5.9 1.4.2 5.7.9 9.5 1.5 3.9.6 10.7 2 15.2 3 4.6 1.1 9.3 2.2 10.7 2.4 5.6 1 26.7 7 37.9 10.7 28.6 9.6 53.5 20.8 82.9 37.3 46.4 26 94.4 67.8 129.6 112.8 4.5 5.8 8.2 11 8.2 11.5s-4.6 5-10.1 9.9c-5.6 4.9-10.7 9.4-11.3 9.9-.6.6-8.5 7.5-17.6 15.5-9.1 8-17.6 15.5-19 16.7-3.1 2.9-4.4 2.9-5.8 0-2.8-6-27.3-34.9-39.8-47.2-18.7-18.2-36.5-32.8-55.2-45-5.3-3.5-10.2-6.9-10.9-7.5-.7-.5-1.4-1-1.6-1-.2 0-4.2-2.2-8.8-4.8-23.9-13.8-48.9-24.6-75.4-32.6-8.2-2.5-16.1-4.8-17.5-5-1.4-.3-8.8-1.8-16.5-3.4-16-3.4-20.2-4-36.6-5.6-20.1-2-51.4-2.1-71.4-.2-32.2 3.2-67.2 11.5-97 23.1-68.1 26.6-126.5 72.6-168.5 133-13 18.7-27.6 44.9-35.5 64-2.1 4.9-4.3 10.3-5 12-.8 1.6-1.6 4.1-2 5.5-.5 2.3 20.5 23.7 233.6 236.8C590.9 810.6 696.9 916 697.6 916c1.1 0 7.9-2.7 20.9-8.3 6-2.6 28.4-13.7 34-16.9 33.3-18.9 68.3-47.2 92.8-75.1 3.4-3.9 7-8 8-9.2 4.2-4.7 16.9-21.7 23.4-31.5 11.9-17.9 23.3-38.9 33.3-61.5 6.5-14.7 18.1-51.7 16.7-53.1-.2-.3-44-.5-97.1-.5H733V572H1020.7l-.2 9.7c-.3 10.4-1.4 28.8-2 33.8-.2 1.6-.7 5.9-1 9.5-.4 3.6-.9 7.4-1.1 8.5-.2 1.1-.7 4-1 6.5-.8 6.5-1.4 10.3-1.9 12-.2.8-.7 3-1 4.8-3.9 23-13.2 55-23.6 81-30.8 77.1-82.7 144.7-149.3 194.1-11.8 8.8-20.5 14.7-35.1 23.8-23.4 14.7-61.4 32.3-88.5 41.1-20.4 6.7-24.8 8-34.1 10.2l-9.6 2.2-268.6-268.7C255.9 592.7 135 471.4 135 470.8c0-3.3 7.8-30.3 13.5-46.8 17.8-51.3 47.4-102.7 83.2-144.2 9.3-10.9 30.4-32.5 40.8-41.8 25.4-22.8 57.4-45.4 85.5-60.2 4.1-2.2 8-4.3 8.5-4.7 2.1-1.6 27.9-13.3 39.7-18 11.2-4.4 26.5-9.7 43.8-15 8.8-2.7 36.3-8.7 48.5-10.6 5.5-.9 11.1-1.8 12.5-2 1.4-.2 5.6-.7 9.5-1 3.8-.4 7.8-.9 8.8-1.1 1.1-.2 7.2-.6 13.6-1 6.4-.3 11.7-.7 11.8-.8.6-.5 41.6.2 48.8.8zM565 1020.1c0 .7-5 .6-23.5-.6-10.4-.6-13.5-.9-27-2.6-16-2-17.7-2.3-37.5-6.5-43.8-9.4-90.8-27.3-126.8-48.5-4.5-2.7-8.5-4.9-8.8-4.9-.3 0-1.7-.9-3.2-1.9-1.5-1.1-7.6-5.2-13.7-9.1-37.5-24.6-72.7-56.8-103.4-94.5-31.2-38.3-58.6-89-75-138.5-3.8-11.4-10.4-34.9-11.5-41-.2-1.4-1.1-5.7-1.9-9.5-.9-3.9-1.9-8.8-2.2-11-.7-4.1-1-5.8-1.9-11-2.2-12.3-4.5-37.6-5-56.3l-.2-6.3 220.8 220.8C465.6 920.1 565 1019.8 565 1020.1z"/></svg>