<svg width="310" height="86" viewBox="0 0 310 86" xmlns="http://www.w3.org/2000/svg" xmlns:xlink="http://www.w3.org/1999/xlink"><defs><path d="M.46268756 20.488197c0-1.0679557.56773984-2.0553929 1.49069661-2.5926827L30.4235433 1.32190564c.931375-.54219028 2.0820059-.5431492 3.0142833-.00251208l11.621414 6.73937637c.0753283.04368366.1379421.1062828.1816435.18160087.1385857.23884853.0573066.54481941-.1815419.6834051l-30.562142 17.7328932c-.1541753.0894563-.2490684.2542252-.2490684.4324735v7.9829203c0 .0884173-.0234458.1752534-.0679472.2516553-.1389854.2386162-.4450919.3193829-.6837081.1803975l-6.40837172-3.7326476c-.07640188-.0445014-.163238-.0679473-.25165531-.0679473-.27614237 0-.5.2238577-.5.5v19.2135348c0 .1785574.09521972.3435632.24981728.4329072l7.41204775 4.2835194c.1545976.089344.2498173.2543498.2498173.4329072v5.8716502c0 .0884826-.0234805.1753805-.0680442.2518217-.1390772.2385626-.4452148.3192114-.6837775.1801341l-11.5445526-6.730245c-.92203868-.5375302-1.48906994-1.5244515-1.48906994-2.591735V20.488197zM18.1393637 65.2961329V29.3588866c0-.1785965.0952611-.3436323.2499121-.4329619l13.2724481-7.6664432c.15541-.0897681.3470108-.0893565.5020337.0010785l13.2749322 7.7441368c.153603.0896067.2480541.2540542.2480541.4318834v35.8613331c0 .1783394-.0949893.3431783-.2492892.4326015l-4.8398823 2.8049154c-.2389193.1384637-.5448486.0570285-.6833124-.1818908-.0441485-.0761783-.0673984-.162664-.0673984-.2507108V49.353144c0-.2761424-.2238577-.5-.5-.5-.0886219 0-.1756515.0235544-.2521763.0682511l-6.9119346 4.0371279c-.156133.0911943-.3493371.0909878-.5052749-.0005401l-6.8726089-4.0338872c-.2381501-.1397825-.544525-.0600399-.6843075.1781102-.0450437.0767418-.0687911.1641142-.0687911.2530987V68.108157c0 .2761424-.2238577.5-.5.5-.0871419 0-.1727706-.0227746-.2483981-.0660663l-4.9124046-2.8120241c-.1556026-.0890722-.2516019-.2546406-.2516019-.4339337zm45.2455672-44.8661925v7.1129476c0 .1770613-.0936438.3409184-.2461982.4307954l-7.3829865 4.3496658c-.1525544.0898769-.2461981.253734-.2461981.4307953v5.6250995c0 .2761424.2238576.5.5.5.0879196 0 .1742849-.0231828.2503863-.0672106l6.3746101-3.6879729c.239023-.1382846.5448912-.05662.6831758.182403.0440277.0761014.0672106.1624667.0672106.2503864V53.542368c0 1.0681167-.5679096 2.0556774-1.4910863 2.5929094l-11.4982374 6.6912668c-.2386707.1388917-.5447455.0580048-.6836372-.1806659-.0444378-.0763618-.0678484-.1631349-.0678484-.2514857v-5.6876159c0-.1783235.0949725-.3431501.2492505-.4325792l7.3645899-4.2689694c.154278-.0894291.2492505-.2542557.2492505-.4325792v-5.7064521c0-.2761424-.2238576-.5-.5-.5-.088295 0-.1750155.0233811-.2513438.0677659l-6.3604034 3.6985692c-.2387163.1388133-.5447645.057826-.6835778-.1808903-.0443848-.0763283-.0677659-.1630487-.0677659-.2513438V27.1439621c0-.1779356-.0945632-.3424647-.2483115-.4320334l-12.8707874-7.4980979c-.2386054-.1390037-.3193486-.4451165-.1803449-.683722.0435712-.0747916.1058121-.1369912.1806328-.1805125l12.8675345-7.4847262c.1553445-.09036.3472324-.0904012.5026157-.0001079l11.99676 6.9713245c.9240929.5369909 1.4927101 1.5250662 1.4927101 2.5938537z" id="a"/></defs><g fill="none" fill-rule="evenodd"><path d="M106.044248 58.8043713c-1.387865-1.2701665-2.081788-3.1753877-2.081788-5.7157207V36.9501449c0-2.540333.693923-4.4455542 2.081788-5.7157207 1.387865-1.2701665 3.380094-1.9052403 5.976745-1.9052403h6.0439v3.4070179h-6.491596c-1.104323 0-1.999707.328744-2.686178.986242-.686471.657498-1.029701 1.4494723-1.029701 2.3759467v17.8420146c0 .9264744.34323 1.7184487 1.029701 2.3759466.686471.657498 1.581855.986242 2.686178.986242h4.118806v-9.7279325h-3.760649v-3.3621887h7.476528v16.4971391h-7.386989c-2.596651 0-4.58888-.6350737-5.976745-1.9052403zm32.041931-11.0952226h-3.984497v13.0004629h-3.894957V29.3291839h8.013763c2.536959 0 4.454572.5603592 5.752897 1.6810944 1.298326 1.1207351 1.947479 2.8914701 1.947479 5.3122581v4.3036015c0 3.3771486-1.343075 5.4840991-4.029266 6.3209147l6.222978 13.762559h-4.253115l-5.775282-13.0004629zm3.156259-14.25568c-.522315-.5080666-1.350545-.7620961-2.484714-.7620961h-4.656042V44.34696h4.656042c1.134169 0 1.962399-.2615009 2.484714-.7845107.522315-.5230097.783469-1.3523413.783469-2.4880196v-5.155356c0-1.1356783-.261154-1.9575384-.783469-2.465605zm29.579602 27.2561429l-1.701246-7.9347653h-8.730077l-1.746016 7.9347653h-3.984497l7.566067-31.3804277h5.148508l7.431758 31.3804277h-3.984497zM164.733371 32.28791l-3.62634 17.1247476h7.297449L164.733371 32.28791zm32.646321 14.5022405c-1.283402 1.1506214-3.178631 1.7259235-5.685743 1.7259235h-4.208345v12.1935376h-3.894957V29.3291839h8.013763c2.536958 0 4.454572.5603592 5.752897 1.6810944 1.298326 1.1207351 1.947479 2.8914701 1.947479 5.3122581v5.1105268c0 2.4207879-.641691 4.2064658-1.925094 5.3570873zm-2.753332-13.3366818c-.522315-.5080666-1.350545-.7620961-2.484714-.7620961h-4.656042v12.4625127h4.656042c1.134169 0 1.962399-.2615009 2.484714-.7845107.522315-.5230097.783468-1.3523413.783468-2.4880196v-5.9622813c0-1.1356783-.261153-1.9575384-.783468-2.465605zm27.923126 27.2561429V46.2746149h-9.222544v14.4349967h-3.894957V29.3291839h3.894957v13.6280715h9.222544V29.3291839h3.894957v31.3804277h-3.894957zm29.506713.6517657c-.238772.0623334-5.058966.0555498-5.417125.0555498-1.701254 0-3.178637.0429808-4.432193-.4245199-1.253556-.4675008-2.290708-1.3323641-3.111489-2.5946161-.82078-1.262252-1.425164-3.0075619-1.81317-5.235982-.388005-2.2284202-.358159-15.0690209.089539-17.2039409.447699-2.13492 1.119237-3.7633564 2.014634-4.8853582.895397-1.1220017 1.999703-1.7699576 3.312952-2.1283748 1.313249-.3584172 5.208198-.3297634 5.685743-.2830133 2.050155-.0045229 3.273858.005783 3.671109.0309177v5.380003c-.72736 0-4.611267.0366927-5.417125.0366927-.656624 0-1.272231.2061772-1.678861.4428663-.406629.2366891-.843159.5401337-1.141625 1.2881349-.298466.7480012-.522312 1.7465773-.671545 3.1802462-.149232 1.4336689-.156694 10.1758744-.022384 11.64071.134309 1.4648356.343232 2.5101611.626774 3.3204957.283543.8103346.664081 1.3479524 1.141626 1.6128695.477545.2649171 1.099887.3973736 1.746015.3973736.925244 0 4.863783.0366927 5.417125.0366927v5.3332531zm26.781501.0050286V35.1702062l-3.850188 14.2875621h-4.656042l-4.029266-14.2875621v26.1961997h-5.461895V28.6415184h9.312083l2.641408 12.5757067 2.686177-12.5757067h8.909156v32.7248875H278.8377zm30.631688-9.7239666c0 2.1816701-.261154 3.9347715-.783469 5.2593569-.522315 1.3245854-1.238622 2.3452801-2.148942 3.0621145-.91032.7168345-1.999704 1.0920856-3.268183 1.3102526-1.268479.2181671-2.648862.1427638-4.14119.1427638-.477545 0-5.792856-.0164891-6.357287-.0555498v-5.1942607c.425311 0 5.461892.0100571 5.90959.0100571 1.402789 0 2.514557-.3038709 3.335338-.9116218.82078-.607751 1.231164-1.6596119 1.231164-3.1556142 0-.8415013-.082076-1.558325-.246232-2.1504926-.164157-.5921676-.410387-1.0752444-.738699-1.449245-.328313-.3740006-.731235-.67008-1.20878-.888247s-1.014776-.3895813-1.611707-.5142482c-2.507112-.5298342-4.290417-1.5427372-5.34997-3.0387396-1.059554-1.4960023-1.589322-3.6153072-1.589322-6.3579781 0-1.7453361.231307-3.2101497.693929-4.3944849s1.149083-2.1504889 2.059403-2.89849c.91032-.7480012 2.02955-1.1011339 3.357722-1.4283844 1.328172-.3272505 2.842921-.333631 4.544117-.3063883.549524.0088 5.221038-.0417212 5.551434-.0366927v5.1513006c-.446092 0-5.611125.032903-5.99913.032903-1.283402 0-2.268324.2649131-2.954796.7947473-.686471.5298342-1.029701 1.386906-1.029701 2.5712412 0 .7480011.052231 1.3635345.156694 1.8466186.104463.4830841.291001.8726622.55962 1.168746s.626773.5376222 1.074471.7246225c.447699.1870003 1.029698.3584147 1.746016.5142482 1.074476.218167 2.051937.5532042 2.93241 1.0051216.880474.4519174 1.64155 1.0674508 2.283251 1.8466186.641702.7791679 1.134163 1.7609047 1.477398 2.9452399.343236 1.1843352.514851 2.6491488.514851 4.3944849z" fill="#FFF"/><path d="M41.6938818 3.2054812l28.8249128 16.7376354c2.311422 1.3421633 3.7338845 3.8130195 3.7338845 6.4858596v33.5349041c0 2.6728401-1.4224625 5.1436963-3.7338845 6.4858596L41.6938818 83.1873753c-2.328685 1.3521873-5.203546 1.3521873-7.5322311 0L5.33673792 66.4497399c-2.311422-1.3421633-3.73388445-3.8130195-3.73388445-6.4858596V26.4289762c0-2.6728401 1.42246246-5.1436963 3.73388445-6.4858596L34.1616507 3.2054812c2.3286851-1.35218731 5.2035461-1.35218731 7.5322311 0z" stroke="#FFF" stroke-width="3"/><g transform="translate(6 6)"><mask id="b" fill="#fff"><use xlink:href="#a"/></mask><use fill="#639AE0" style="mix-blend-mode:multiply" xlink:href="#a"/><g mask="url(#b)"><path fill="#FFF" d="M31.9971515.39906552L63.5066442 18.6964699l-31.576689 18.2974044L.48765881 18.6964699z"/><path fill="#E6E6E6" d="M63.5066442 18.6964699v36.5948087L31.9971515 73.588683l-.0671963-36.6825868z"/><path fill="#D2D2D2" d="M31.9971515 36.9669845V73.588683L.48765881 55.2912786V18.6964699z"/></g><path d="M.46268756 24.5129381c0-3.5598525 1.89246615-6.8513097 4.96898871-8.6422755L26.9085824 3.3681038c3.1045831-1.80730093 6.9400197-1.81049734 10.0476108-.00837359l7.3573881 4.26662432c.1506567.08736733.2758844.21256561.3632871.36320174.2771714.47769705.1146132 1.08963882-.3630839 1.36681019L14.7462686 26.5121536c-.3083506.1789125-.4981368.5084504-.4981368.864947v6.8250972c0 .1768346-.0468917.3505068-.1358944.5033106-.2779708.4772323-.8901839.6387657-1.3674162.3607949l-4.90506111-2.8570229c-.15280376-.0890027-.32647601-.1358944-.50331062-.1358944-.55228475 0-1 .4477152-1 1v18.0551351c0 .3571149.19043944.6871264.49963457.8658143l6.91241316 3.9947741c.3091952.178688.4996346.5086995.4996346.8658144v4.7128628c0 .1769652-.046961.350761-.1360883.5036433-.2781546.4771253-.8904298.6384229-1.367555.3602683l-7.31823448-4.2663854C2.35279176 56.3735454.46268756 53.0838079.46268756 49.5261962V24.5129381zM18.1393637 65.0062246V29.6474941c0-.3571931.1905222-.6872646.4998242-.8659239l12.7712061-7.3769153c.3108201-.1795362.6940216-.1787129 1.0040674.0021571l12.7761743 7.4531786c.307206.1792134.4961082.5081083.4961082.8637668v35.2860279c0 .3566789-.1899787.6863566-.4985784.8652031l-3.8398824 2.2253733c-.4778384.2769275-1.0896971.114057-1.3666246-.3637815-.0882972-.1523567-.1347969-.325328-.1347969-.5014216v-17.010934c0-.5522847-.4477153-1-1-1-.1772438 0-.3513029.0471088-.5043525.1365021L32.4355463 52.81087c-.3122661.1823886-.6986743.1819756-1.0105498-.0010801l-5.867031-3.4436619c-.4763001-.2795651-1.0890499-.1200797-1.368615.3562204-.0900874.1534836-.1375822.3282283-.1375822.5061973v17.0172697c0 .5522847-.4477153 1-1 1-.1742837 0-.3455412-.0455493-.4967962-.1321327l-3.9124046-2.2395908c-.3112052-.1781443-.5032038-.5092811-.5032038-.8678673zm45.2455672-41.7401557v3.9910708c0 .3541226-.1872876.6818367-.4923963.8615906l-6.8905903 4.0595719c-.3051087.179754-.4923962.5074681-.4923962.8615907v4.4724325c0 .5522847.4477152 1 1 1 .1758393 0 .3485699-.0463657.5007727-.1344212l4.8738373-2.8197145c.478046-.2765691 1.0897824-.1132399 1.3663516.3648061.0880555.1522028.1344212.3249334.1344212.5007727v13.0931586c0 3.560389-1.893032 6.852258-4.9702875 8.6430314l-7.2675506 4.2292673c-.4773414.2777834-1.089491.1160096-1.3672744-.3613319-.0888757-.1527236-.1356968-.3262698-.1356968-.5029712v-4.5300479c0-.3566469.189945-.6863001.498501-.8651582l6.8660889-3.9800076c.308556-.1788581.498501-.5085113.498501-.8651582v-4.5492141c0-.5522848-.4477152-1-1-1-.1765901 0-.350031.0467621-.5026875.1355318l-4.8577159 2.8247576c-.4774326.2776267-1.0895291.115652-1.3671557-.3617806-.0887696-.1526565-.1355318-.3260975-.1355318-.5026875V27.4313375c0-.3558713-.1891265-.6849295-.496623-.8640669l-11.8803048-6.9210753c-.477211-.2780075-.6386973-.890233-.3606899-1.3674439.0871424-.1495834.2116243-.2739824.3612657-.3610251l11.8737991-6.9066949c.310689-.18072.6944647-.1808024 1.0052313-.0002158l9.2932533 5.4003151c2.4421575 1.4191392 3.9448776 4.030387 3.9448776 6.8549382z" fill="#FFF" style="mix-blend-mode:multiply" mask="url(#b)"/></g></g></svg>